# xmcd CD database file
#
# Track frame offsets:
#	150
#	21818
#	40379
#	50833
#	59811
#	72371
#	91655
#	104156
#	124460
#	141328
#	159058
#	170660
#	181449
#	196873
#	208018
#	222441
#
# Disc length: 3132 seconds
#
# Revision: 0
# Processed by: cddbd v1.4b42PL1 Copyright (c) Steve Scherf et al.
# Submitted via: Feurio! 1.62 - http://www.feurio.com
#
DISCID=fc0c3a10
DTITLE=Jonny Hill - Meilensteine
DYEAR=1900
DGENRE=
TTITLE0=Ruf Teddybär eins-vier
TTITLE1=Sylvias Mutter
TTITLE2=König der Landstarße
TTITLE3=Ein Ring aus Feuer
TTITLE4=500 Meilen von zu Haus
TTITLE5=Der alöte Man
TTITLE6=Kann Liebe alles verzeihn
TTITLE7=Der Feigling
TTITLE8=Wo der Mond versinkt
TTITLE9=Der alte Fluß
TTITLE10=Mehr hinterm Lenkrad als zuhaus
TTITLE11=Die Arbeit hört nie auf
TTITLE12=Lucille
TTITLE13=Tennessee Waltz
TTITLE14=Nur noch einmal nach Haus
TTITLE15=Green Green Grass of Home
EXTD=
EXTT0=
EXTT1=
EXTT2=
EXTT3=
EXTT4=
EXTT5=
EXTT6=
EXTT7=
EXTT8=
EXTT9=
EXTT10=
EXTT11=
EXTT12=
EXTT13=
EXTT14=
EXTT15=
PLAYORDER=
